<?xml version="1.0" encoding="utf-8"?>
<!-- Generator: Adobe Illustrator 19.2.1, SVG Export Plug-In . SVG Version: 6.00 Build 0)  -->
<svg version="1.1" id="Layer_1" xmlns="http://www.w3.org/2000/svg" xmlns:xlink="http://www.w3.org/1999/xlink" x="0px" y="0px"
	 viewBox="0 0 30 30" style="enable-background:new 0 0 30 30;" xml:space="preserve">

<path class="st1" d="M15,5c5.7,0,10.3,4.6,10.3,10.3c0,4.5-2.9,8.4-7,9.7c-0.5,0.1-0.7-0.2-0.7-0.5c0-0.3,0-1.4,0-2.8
	c0-1-0.3-1.6-0.7-1.9c2.3-0.3,4.7-1.1,4.7-5.1c0-1.1-0.4-2-1.1-2.8c0.1-0.3,0.5-1.3-0.1-2.7c0,0-0.9-0.3-2.8,1.1
	C16.7,10.1,15.9,10,15,10c-0.9,0-1.7,0.1-2.6,0.3c-2-1.3-2.8-1.1-2.8-1.1c-0.6,1.4-0.2,2.5-0.1,2.7c-0.7,0.7-1.1,1.6-1.1,2.8
	c0,3.9,2.4,4.8,4.7,5.1c-0.3,0.3-0.6,0.7-0.7,1.4c-0.6,0.3-2.1,0.7-3-0.9c0,0-0.5-1-1.6-1.1c0,0-1,0-0.1,0.6c0,0,0.7,0.3,1.1,1.5
	c0,0,0.6,2,3.5,1.4c0,0.9,0,1.5,0,1.7c0,0.3-0.2,0.6-0.7,0.5c-4.1-1.4-7-5.2-7-9.7C4.7,9.6,9.3,5,15,5L15,5z"/>
<path d="M15,2c7.2,0,13,5.8,13,13s-5.8,13-13,13S2,22.2,2,15S7.8,2,15,2 M15,0C6.7,0,0,6.7,0,15s6.7,15,15,15s15-6.7,15-15
	S23.3,0,15,0L15,0z"/>
</svg>
