<?xml version="1.0" encoding="utf-8"?>
<!-- Generator: Adobe Illustrator 19.2.1, SVG Export Plug-In . SVG Version: 6.00 Build 0)  -->
<svg version="1.1" id="Layer_1" xmlns="http://www.w3.org/2000/svg" xmlns:xlink="http://www.w3.org/1999/xlink" x="0px" y="0px"
	 viewBox="0 0 30 30" style="enable-background:new 0 0 30 30;" xml:space="preserve">

<g id="ball">
	<g>
		<path class="st0" d="M15,5C9.5,5,5,9.5,5,15s4.5,10,10,10s10-4.5,10-10S20.5,5,15,5z M21.6,9.6c1.2,1.5,1.9,3.3,1.9,5.3
			c-0.3-0.1-3.1-0.6-5.9-0.3c-0.1-0.1-0.1-0.3-0.2-0.4c-0.2-0.4-0.4-0.8-0.6-1.2C20,11.7,21.4,9.9,21.6,9.6z M15,6.5
			c2.2,0,4.2,0.8,5.7,2.2c-0.2,0.2-1.4,1.9-4.5,3.1c-1.4-2.6-3-4.7-3.2-5C13.6,6.6,14.3,6.5,15,6.5z M11.4,7.3
			c0.2,0.3,1.8,2.4,3.2,4.9c-4,1.1-7.5,1-7.9,1C7.2,10.6,9,8.4,11.4,7.3z M6.5,15c0-0.1,0-0.2,0-0.3c0.4,0,4.5,0.1,8.8-1.2
			c0.2,0.5,0.5,1,0.7,1.4c-0.1,0-0.2,0.1-0.3,0.1c-4.4,1.4-6.7,5.3-6.9,5.6C7.3,19.2,6.5,17.2,6.5,15z M15,23.6
			c-2,0-3.8-0.7-5.2-1.8c0.2-0.3,1.9-3.7,6.7-5.3c0,0,0,0,0.1,0c1.2,3.1,1.7,5.7,1.8,6.5C17.3,23.3,16.2,23.6,15,23.6z M19.8,22.1
			c-0.1-0.5-0.5-3-1.7-6.1c2.7-0.4,5,0.3,5.3,0.4C23.1,18.7,21.7,20.8,19.8,22.1z"/>
	</g>
</g>
<path d="M15,2c7.2,0,13,5.8,13,13s-5.8,13-13,13S2,22.2,2,15S7.8,2,15,2 M15,0C6.7,0,0,6.7,0,15s6.7,15,15,15s15-6.7,15-15
	S23.3,0,15,0L15,0z"/>
</svg>
