<?xml version="1.0" encoding="utf-8"?>
<!-- Generator: Adobe Illustrator 19.2.1, SVG Export Plug-In . SVG Version: 6.00 Build 0)  -->
<svg version="1.1" id="Layer_1" xmlns="http://www.w3.org/2000/svg" xmlns:xlink="http://www.w3.org/1999/xlink" x="0px" y="0px"
	 viewBox="0 0 30 30" style="enable-background:new 0 0 30 30;" xml:space="preserve">

<path d="M15,5C9.5,5,5,9.5,5,15c0,5.5,4.5,10,10,10c5.5,0,10-4.5,10-10C25,9.5,20.5,5,15,5z M12,20.5H9.7v-7.3H12V20.5z M10.8,12.2
	c-0.7,0-1.3-0.6-1.3-1.3c0-0.7,0.6-1.3,1.3-1.3c0.7,0,1.3,0.6,1.3,1.3C12.2,11.6,11.6,12.2,10.8,12.2z M20.5,20.5h-2.3v-3.6
	c0-0.8,0-1.9-1.2-1.9c-1.2,0-1.4,0.9-1.4,1.9v3.6h-2.3v-7.3h2.2v1h0c0.3-0.6,1-1.2,2.1-1.2c2.3,0,2.7,1.5,2.7,3.5V20.5z"/>
<path d="M15,2c7.2,0,13,5.8,13,13s-5.8,13-13,13S2,22.2,2,15S7.8,2,15,2 M15,0C6.7,0,0,6.7,0,15s6.7,15,15,15s15-6.7,15-15
	S23.3,0,15,0L15,0z"/>
</svg>
